<?xml version="1.0" encoding="UTF-8"?>
<svg width="24px" height="24px" version="1.1" viewBox="0 0 100 100" xmlns="http://www.w3.org/2000/svg">
 <g>
  <path d="m82.488 50c4.8398-6.3125 8.8633-12.562 11.793-18.414 8.0547-16.105 5.3633-23.871 1.6797-27.543-2.3633-2.3555-5.6211-3.5586-9.6836-3.5586-9.1719 0.003906-22.395 6.3555-36.277 17.016-13.883-10.652-27.105-17.012-36.273-17.012-4.0625 0-7.3203 1.1992-9.6836 3.5586-3.6797 3.6797-6.3711 11.438 1.6797 27.543 2.9219 5.8477 6.9492 12.098 11.789 18.41-4.8359 6.3125-8.8633 12.562-11.793 18.414-8.0508 16.105-5.3594 23.867-1.6797 27.543 2.3594 2.3555 5.6211 3.5586 9.6836 3.5586 9.1719 0 22.391-6.3555 36.273-17.012 13.883 10.656 27.105 17.012 36.273 17.012 4.0664 0 7.3203-1.1992 9.6836-3.5586 3.6797-3.6797 6.3672-11.438-1.6797-27.543-2.9141-5.8516-6.9453-12.102-11.785-18.414zm3.7891-41.184c1.7656 0 3.043 0.37891 3.793 1.125 1.7578 1.7539 1.9648 7.5078-3.2422 17.926-2.4531 4.9141-5.7812 10.148-9.7422 15.477-3.0469-3.5703-6.3125-7.1367-9.7969-10.625-3.5156-3.5156-7.0703-6.7969-10.629-9.8203 12.875-9.5859 23.645-14.082 29.617-14.082zm-14.469 41.184c-3.1992 3.8242-6.6758 7.6484-10.418 11.391-3.8906 3.8828-7.6992 7.3633-11.391 10.461-3.6953-3.0977-7.5078-6.5742-11.391-10.461-3.7422-3.7422-7.2148-7.5664-10.418-11.391 3.1992-3.8242 6.6758-7.6484 10.418-11.391 3.8828-3.8828 7.6992-7.3633 11.391-10.457 3.6953 3.0977 7.5078 6.5742 11.391 10.457 3.7461 3.7422 7.2227 7.5664 10.418 11.391zm-58.629-22.133c-5.207-10.418-5-16.172-3.2422-17.93 0.74219-0.74219 2.0156-1.1211 3.793-1.1211 5.9727 0 16.746 4.4961 29.613 14.07-3.5547 3.0352-7.1133 6.3125-10.625 9.8203-3.4844 3.4883-6.7461 7.0508-9.7969 10.625-3.9688-5.3242-7.293-10.562-9.7422-15.465zm0.54687 63.316c-1.7695 0-3.0469-0.375-3.793-1.1211-1.7578-1.7578-1.9648-7.5117 3.2422-17.93 2.4531-4.9102 5.7773-10.148 9.7422-15.473 3.0508 3.5703 6.3125 7.1367 9.7969 10.625 3.5117 3.5156 7.0703 6.7969 10.625 9.8203-12.867 9.582-23.641 14.078-29.613 14.078zm76.344-1.1211c-0.74609 0.74609-2.0156 1.1211-3.793 1.1211-5.9766 0-16.754-4.4961-29.613-14.07 3.5586-3.0312 7.1133-6.3125 10.625-9.8203 3.4844-3.4844 6.7461-7.0469 9.7969-10.625 3.9727 5.3242 7.293 10.566 9.7422 15.477 5.207 10.41 5 16.16 3.2422 17.918z"/>
  <path d="m50 40.762c-5.0898 0-9.2383 4.1406-9.2383 9.2383s4.1445 9.2383 9.2383 9.2383 9.2305-4.1406 9.2305-9.2383-4.1328-9.2383-9.2305-9.2383z"/>
 </g>
</svg>
