<?xml version="1.0" encoding="UTF-8"?>
<svg width="80px" height="80px" version="1.1" viewBox="0 0 100 100" xmlns="http://www.w3.org/2000/svg">
 <g>
  <path d="m20.875 54.043c0 2.1289 2.3438 2.1328 2.3438 0-0.003906-0.89062-2.3438-2.1289-2.3438 0z"/>
  <path d="m91.477 4.8164c-16.77-0.042968-18.414-0.58594-20.586 0.57422-1.375 0.40625-2.6289 1.7031-3.1445 2.957-1.5195 3.7031-0.94531 30.098-0.8125 34.121 0.15234 4.7617 0.62891 7.2969 4.5859 8.3789 2.1758 0.97656 4.7422 0.57422 9.5273 0.61719-0.13281 0.4375-0.027344-1.0664-0.0625 19.277l-8.0898-0.089844 0.058594-0.94141c0.082031-1.2773-0.85156-2.3789-2.1172-2.5078-2.3906-0.24609-4.6484-0.47656-8.0586-0.53906-0.14844-0.003906-0.21875-0.003906-0.070313 0-1.3438-0.023437-2.6797 0.15625-3.2773 1.4727-2.0234 0.027343-5.3711 0.13672-6.418-0.019531-0.76953-2.207-0.8125-3.3398-3.3672-3.4688l-6.6094-0.32813c-4.5469-0.21875-6.0664 1.3711-6.1836 5.9219-0.62109 0.3125-1.3906 1.0508-1.8516 2.5859l-11.027 0.14453c-0.57422-15.184-0.46875-14.492-0.57812-14.957l9.5156-0.082031c3.5547-0.03125 5.1875-1.2812 5.2031-5.543l0.12109-43.422c0.015625-4.5391-1.7188-5.8867-5.5273-5.8945-16.77-0.039063-19.547-0.41016-22.129-0.023438 0.003906-0.003906 0.007813-0.003906 0.015625-0.007812-2.2852-0.37109-4.7188 1.6758-5.5664 3.6133-0.76172 1.7344-0.85547 3.6797-0.92969 5.5742-0.45703 11.613-0.53906 23.246-0.16406 34.863 0.082031 2.4922 0.21094 5.0898 1.4453 7.2578 2.7461 4.8359 10.035 3.6328 15.891 3.6836-0.097656 0.45312-0.058593-1.0508 0.52344 16.098 0.023437 0.59375 0.51172 1.0625 1.1016 1.0625 0.14844 0 11.859-0.14844 11.711-0.15625-0.125 1.6758-0.039063 2.3828 0.49219 13.152 0.10156 2.082 0.24219 4.3398 1.8398 5.6797 1.2695 1.3633 3.4453 1.1953 5.4141 1.2891 11.703 2.0625 30.504 2.6914 31.625 0.96484 0.39063-0.60156-0.39062-1.8086-3.1641-1.6094 0.91406-1.0586 0.60938-0.80469 1.9336-21.656 0.79688 0.007813 8.5 0.09375 9.332 0.10156 0.60156 0 1.1016-0.48828 1.1016-1.1016-0.035157-21.52 0.070312-19.98-0.066407-20.41 9.7656-0.082031 10.445 0.12891 11.73-0.92578 1.3477-1.1094 1.3516-2.9844 1.3555-3.9922l0.10156-36.566c0.019531-3.9883-1.5742-5.1406-4.8242-5.1484zm-83.152 5.3281c10.48 0.20312 19.789-0.19531 27.688-0.03125l-0.10938 39.734c-6.082-0.10156-17.062-0.042968-27.738 0.015625zm9.4727-5.0078c16.156 0.58203 17.914-1.2422 18.188 2.7695-7.418-0.14453-17.879 0.21875-27.609 0.03125 0.22266-2.7695 1.1602-3.0859 9.4219-2.8008zm-9.6133 46.93c10.688-0.058594 21.668-0.11719 27.715-0.015625-0.070313 2.957-0.15625 3.6562-3.0156 3.6758-21.195 0.007813-24.453 1.5-24.699-3.6602zm54.473 16.801c1.1172 0.054687 2.2109-0.058594 7.9492 0.53125 0.30469 0.03125 0.14453-1.0273-1.2695 22.82-0.015626 0.22266-0.046876 0.74609-0.17188 0.87109-0.49219 0.49219-18.117 0.34766-28.664-0.21094-2.1602-0.11328-2.1641-0.58203-2.2227-1.6992-1.0234-19.934-1.5547-18.68 0.53125-18.527 1.793 0.125 1.0586-0.050782 8.7539 0.56641 7.2578 0.58594 8.1055 0.51562 9.625 0.59766 2.9297 0.16797 3.4844-0.74219 3.9883-3.625 0.21094-1.25 0.015625-1.3672 1.4805-1.3242zm-13.133-2.0156c0.89062 0.046876 0.76562 0.085938 0.90234 0.54688 0.96094 3.4062 1.1016 3.0781 8.4766 2.9531-0.09375 0.50391-0.21094 1.0625-0.31641 1.1953-0.49609 0.27344-6.1641-0.19531-19.547-1.0898 0.11719-5.1523 1.2812-4.0117 10.484-3.6055zm21.602-55.727c7.6484 0.14062 16.996-0.14453 22.973-0.03125l-0.09375 33.113c-5.125-0.082031-14.168-0.035156-23.016 0.015625zm20.348-4.1016c1.7305 0.035156 2.4102 0.11719 2.5781 1.8594-6.2422-0.11328-14.734 0.18359-22.855 0.03125 0.30859-2.8242 0.96875-1.9414 20.277-1.8906zm-8.8516 42.219c0.48828-0.082032 0.87109-0.63281 0.87109-1.3242 0-1.793-1.9727-1.7969-1.9727 0 0 0.69531 0.38672 1.2461 0.87891 1.3242-8.0039-0.050782-11.133 0.86328-11.379-2.8164 8.8516-0.046875 17.891-0.097656 22.98-0.015625v0.10938c-0.015625 3.6289-0.35156 2.3828-11.379 2.7227z"/>
  <path d="m57.051 79.375h-14.043c-1.457 0-1.4609 2.207 0 2.207h14.043c1.4609 0 1.4609-2.207 0-2.207z"/>
  <path d="m51.859 84.531h-6.9766c-1.457 0-1.4609 2.207 0 2.207h6.9766c1.457-0.003906 1.457-2.207 0-2.207z"/>
  <path d="m21.367 23.352c0.58594-0.019531 1.0547-0.49219 1.0703-1.0781 0.035156-6.3047 0.40234-6.5391-0.16797-7.125-0.57422-0.58984-0.51953-0.21484-9.8398-0.33203-0.60938 0-1.1016 0.49219-1.1016 1.1016 0.10938 6.6172-0.25391 6.8203 0.33594 7.3906 0.20703 0.19922 0.48438 0.3125 0.76953 0.3125 0.14453 0 9.082-0.26562 8.9336-0.26953zm-7.8359-6.3281h6.8203l-0.097656 4.1523-6.7227 0.20312z"/>
  <path d="m13.367 31.551h15.086c1.457 0 1.4609-2.207 0-2.207l-15.086 0.003906c-1.4609 0-1.4609 2.2031 0 2.2031z"/>
  <path d="m22.977 37.312h-9.6094c-1.457 0-1.4609 2.207 0 2.207h9.6094c1.4609 0 1.4609-2.207 0-2.207z"/>
  <path d="m83.23 22.883c0.58594-0.019531 1.0547-0.49219 1.0703-1.0781l0.14844-6.3281c0.015625-0.61328-0.48047-1.1289-1.1016-1.1289h-9.0508c-0.60938 0-1.1016 0.49219-1.1016 1.1016v6.5977c0 0.61719 0.5 1.1016 1.1016 1.1016 0.003906 0.003906 9.082-0.25781 8.9336-0.26563zm-7.8359-6.3281h6.8203l-0.097656 4.1562-6.7227 0.20312z"/>
  <path d="m75.23 31.082h15.086c1.457 0 1.4609-2.207 0-2.207l-15.086 0.003906c-1.4609 0-1.4609 2.2031 0 2.2031z"/>
  <path d="m84.84 36.844h-9.6094c-1.457 0-1.4609 2.207 0 2.207h9.6094c1.457 0 1.457-2.207 0-2.207z"/>
 </g>
</svg>
