<?xml version="1.0" encoding="UTF-8"?>
<svg width="80px" height="80px" version="1.1" viewBox="0 0 100 100" xmlns="http://www.w3.org/2000/svg">
 <g>
  <path d="m81.105 37.094c4.4766-7.1211 9.6211-16.336 9.6211-21.055 0-12.66-15.969-18.57-24.148-8.7031-4.2227 3.8164-4.9219 9.0234-3.3828 14.457-14.188-6.0508-30.242-2.7773-41.031 7.7695-7.7656 5.0742-15.961 22.73-11.734 38.91 3.75 14.359 16.363 26 30.98 28.582 14.613 2.582 30.453-4.0312 38.898-16.234 8.8477-12.805 8.9023-30.805 0.79688-43.727zm-33.223-16.082c-0.25391 4.6602-0.45312 9.3359-0.61719 14.016-3.6602 0.09375-7.3164-0.23047-10.902-0.95703 2.2656-4.3672 5.1406-8.6719 8.625-12.883 0.95703-0.097656 1.9219-0.15625 2.8945-0.17578zm3.0508 0.050781c2.9453 4.2734 5.4609 8.4023 7.5781 12.414-3.0039 0.76172-6.0273 1.25-9.0352 1.4531 0.16406-4.6406 0.36328-9.2734 0.61328-13.895 0.28125 0.011719 0.5625 0.007813 0.84375 0.027344zm17.191 11.426c1.668 2.875 3.0586 4.6992 5.5703 8.5781 0.70703 0.35156 1.8125 0.81641 2.7617 1.0781 0.48047 0.33594 0.6875 0.19922 0.83594 0.16797 0.011719 0 0.027343 0.007812 0.039062 0.007812-0.003906-0.003906-0.003906-0.011718-0.007812-0.015624 0.67969-0.16406 0.75391-0.50781 2.4727-3.1602 2.168 3.6797 3.6953 7.7305 4.4062 12.195-5.0742 2.0586-10.316 3.6523-15.648 4.8047-1.0078-7.3789-3.5391-14.531-6.8555-21.27 2.1641-0.66797 4.3164-1.4531 6.4258-2.3867zm4.6055 51.074c-2.3008-1.1328-4.6523-2.0898-7.0391-2.8984 2.8438-6.7578 3.9141-14.273 3.125-22.324 5.3359-1.1406 10.578-2.7188 15.668-4.7461 1.0469 11.059-3.5469 22.324-11.754 29.969zm-58.922-17.508c-1.0664-3.8867-1.4023-7.9492-1.0781-11.941 4.9141 1.875 9.9648 3.3359 15.102 4.3906-0.015625 7.0898 1.4688 14.137 4.4688 20.992-2.9648 0.75391-5.9141 1.7305-8.832 2.9375-4.5781-4.6211-7.9883-10.309-9.6602-16.379zm21.539-29.934c4.2852 0.92188 8.0703 1.2109 11.836 1.125-0.22656 7.0195-0.35547 14.051-0.38281 21.086-5.5938-0.066406-11.184-0.58594-16.691-1.6094 0.27344-6.8906 2.0273-13.809 5.2383-20.602zm28.289 43.879c-4.707-1.4023-9.5469-2.1875-14.445-2.3555-0.12891-5.6953-0.1875-11.398-0.18359-17.105 5.9141-0.0625 11.824-0.64062 17.641-1.7461 0.74609 7.7461-0.27344 14.828-3.0117 21.207zm-21.039 12.5c-0.14453-0.92188-3.3945-3.8828-7.1328-11.465 3.8594-0.80078 7.7344-1.1992 11.578-1.2109 0.11328 4.3867 0.25391 8.7695 0.44531 13.141-1.6602-0.046875-3.293-0.20312-4.8906-0.46484zm6.4102-34.148c0.027344-7.0742 0.15625-14.148 0.38672-21.211 3.375-0.21094 6.7773-0.76562 10.148-1.6562 3.375 6.7812 5.832 13.723 6.8438 21.105-5.7305 1.1055-11.551 1.6992-17.379 1.7617zm-2.2031 2.1914c-0.003907 5.6953 0.054687 11.391 0.17969 17.078-4.1484 0.015625-8.3242 0.47266-12.484 1.3711-2.9062-6.5391-4.3789-13.266-4.4258-20.039 5.5234 1.0039 11.125 1.5273 16.73 1.5898zm-13.562 20.984c1.6953 3.5039 3.793 6.9531 6.2891 10.324-5.9844-1.5391-10.254-4.1562-14.285-7.7461 2.6484-1.043 5.3164-1.9141 7.9961-2.5781zm16.449 11.43c-0.19141-4.3555-0.33203-8.7266-0.44141-13.102 4.5547 0.16797 9.0586 0.89062 13.441 2.168-1.8516 3.707-4.3047 7.1602-7.3789 10.348-1.8477 0.34766-3.7227 0.53125-5.6211 0.58594zm15.082-10.273c2.0742 0.69531 4.1211 1.5156 6.1289 2.4609-3.9375 3.207-7.7344 5.0508-11.793 6.2812 2.2734-2.7266 4.1641-5.6484 5.6641-8.7422zm-30.648-49.113c-3.168-0.79297-6.3164-1.9219-9.3867-3.3711 4.7852-4.3281 10.633-7.293 17.035-8.5352-3.0469 3.9023-5.5977 7.8828-7.6484 11.906zm-0.98828 2.0234c-3.1758 6.8164-4.9219 13.754-5.2461 20.668-5.0664-1.0625-10.055-2.5195-14.895-4.4023 1.1445-7.6914 4.9141-14.73 10.043-20.016 1.1914 0.51172 4.3711 2.2578 10.098 3.75zm55.383-19.551c0 5.3398-8.5039 18.777-11.445 23.238-2.9453-4.457-11.43-17.875-11.43-23.238 0-6.3125 5.1289-11.445 11.43-11.445 6.3125 0 11.445 5.1328 11.445 11.445zm-21.48 14.508c-2.0859 0.91016-4.2109 1.6836-6.3555 2.3281-1.9414-3.7266-4.2266-7.5508-6.8672-11.488 3.5742 0.54688 7.0703 1.6562 10.371 3.2891 0.80859 2.0234 1.8086 3.9766 2.8516 5.8711z"/>
  <path d="m81.531 16.836c1.4297-1.7812 1.5859-4.3789 0.375-6.1758-2.3008-3.4023-7.0469-3.3555-9.7422-0.5625-0.69531 0.71875-1.5469 1.8984-1.668 3.4141-0.42578 5.3281 7.4805 7.7539 11.035 3.3242zm-7.7812-5.2031c0.99219-1.0273 2.5039-1.5977 4.0547-1.2734 0.25781 0.40234 0.66797 0.79297 0.85547 1.1523 1.1797 2.2969-0.042968 4.6953-2.3633 5.3984-2.9844-0.125-4.9102-2.8203-2.5469-5.2773z"/>
 </g>
</svg>
