<?xml version="1.0" encoding="UTF-8"?>
<svg width="80px" height="80px" version="1.1" viewBox="0 0 100 100" xmlns="http://www.w3.org/2000/svg">
 <g>
  <path d="m52.289 84.629c-7.8398 4.4258-20.883-1.8789-22.555-13.98 1.9648-0.79688 1.875-0.48047 1.9766-1.5664 0.18359-0.16797 0.32812-0.37109 0.37109-0.625 0.14453-0.92969-0.80859-1.2617-1.1758-1.6211-3.3047-2.5273-6.7227-5.1445-10.09-7.2695-0.27734-0.17578-0.62109-0.21875-0.93359-0.11328-0.3125 0.10156-0.5625 0.33984-0.68359 0.64844-1.7227 4.4219-2.9023 8.4805-3.7148 12.77-0.10938 0.58594 0.25391 1.2539 1.0625 1.2734 0.65234 0.69531 0.13672 0.67188 3.1836-0.27734 4.5117 14.684 21.469 20.289 33.684 12.668 1.2148-0.76562 0.11719-2.6094-1.125-1.9062zm-30.855-12.863c-0.070313-0.30859-0.26562-0.57031-0.53906-0.72266-0.62891-0.35156-0.98047 0.007812-2.8906 0.52344 0.67578-3.1289 1.5742-6.1797 2.7734-9.4023 2.6445 1.7461 5.332 3.7773 7.957 5.7852-0.70312 0.27344-1.3867 0.55469-2.0078 0.85156-0.44531 0.21094-0.69531 0.6875-0.61719 1.1719 1.0586 6.5547 4.5352 12.219 9.5391 15.535 1.4219 0.94141 2.9219 1.6719 4.4609 2.1797-9.5664-0.57031-16.824-7.668-18.676-15.922z"/>
  <path d="m70.273 45.059c-2.0703 0.46484-1.9336 0.18359-2.207 1.2188-0.66016 0.42188-0.65234 1.1992-0.22266 1.6562 2.9727 3.1719 6.207 6.668 9.4102 9.5234 0.51953 0.46094 1.3281 0.33203 1.6836-0.26172 2.4258-4.0781 4.2539-7.8867 5.7578-11.984 0.20703-0.56641-0.054687-1.293-0.83984-1.4336-0.50781-0.76172 0.023437-0.6875-3.1797-0.24609-2.0234-15.105-17.664-23.609-31.148-18.027-1.3125 0.54297-0.55469 2.5391 0.80078 2.0547 1.2852-0.46875 2.6172-0.72266 3.9648-0.78516 9.6055 1.0664 16.234 9.125 15.98 18.285zm8.375 0.25781c0.039062 0.65625 0.64062 1.1367 1.2891 1.0234 0.64062-0.10938 1.3516-0.19531 2.0664-0.26562-1.1797 2.9766-2.5703 5.8359-4.2812 8.8203-2.3203-2.1562-4.6367-4.6016-6.8984-7.0117 0.73828-0.15234 1.4609-0.32031 2.1211-0.50781 0.47266-0.13281 0.80078-0.5625 0.80078-1.0547 0.03125-6.6406-2.4688-12.797-6.8594-16.891-1.2461-1.1641-2.6094-2.125-4.043-2.8828 9.3398 2.1367 15.332 10.32 15.805 18.77z"/>
  <path d="m42.305 57.621c3.4766-0.42188 5.9961-0.92578 8.5039-1.8438 0.61719-0.22656 1.2695-0.41797 1.7578-0.85156 0.48438-0.43359 0.77344-1.1367 0.51562-1.7227-0.25391-0.58203-0.92578-0.86719-1.543-1.082-1.4844-0.51953-3.0078-0.93359-4.543-1.2891 0.089844-0.69531 0.011718 4.543-0.21484-37.027 0.14062-0.35156 0.24219-0.71484 0.24219-1.0977 0-4.6797-11.02-7.125-21.906-7.125-10.887 0-21.906 2.4492-21.906 7.125 0 0.13281 0.039062 0.25391 0.058593 0.38281-0.36719 2.9961-0.33594 22.219-0.30469 25.234 0.027344 2.7891 0.085937 5.582 0.17578 8.3711 0.070313 2.1367 0.18359 4.3672 1.2188 6.2383 0.34766 0.625 0.83594 1.1836 1.3984 1.6406 0.25781 0.25 0.54297 0.48438 0.87891 0.6875 2.0547 1.2461 4.2891 1.6758 6.5469 2.1094 2.6992 0.51562 5.0273 0.73828 7.4336 0.83594 7.332 0.61328 15.074 0.21875 21.688-0.58594zm2.2891-41.477 0.050781 8.2617c-0.62891 4.1094-15.172 4.9766-19.316 4.9766-11.801 0-19.34-2.8398-19.375-4.8008 0-0.14844-0.011719-1.0469-0.011719-0.89844 0.007813-0.39844-0.066406-4.332-0.11328-7.4219 3.9023 2.3555 11.621 3.5742 19.293 3.5742 7.793 0.003906 15.633-1.2617 19.473-3.6914zm0.125 23.035c-1.6211 2.1406-9.1211 4.2852-19.391 4.2852-10.047 0-17.531-2.0938-19.316-4.1953l0.007812-3.0898c0-0.066407-0.027343-0.125-0.039062-0.19141 0.003906-0.03125 0.019531-0.058593 0.019531-0.09375l-0.035156-8.0547c7.5078 4.9922 31.402 4.9961 38.703 0.019531 0 0.14453 0.050781 11.883 0.050781 11.32zm-38.723 5.4648 0.007812-2.6055c3.6523 2.2031 10.934 3.6328 19.324 3.6328 7.1172 0 15.352-1.1523 19.391-3.6406 0.011719 1.9883-0.019531 4.1836 0.082031 5.6523 0.29297 4.25 0.085938 5.1992-5.2969 6.7227-3.9609 1.125-8.5977 1.668-14.176 1.668-4.2227 0-7.5312-0.0625-11.828-0.88672-2.0586-0.39453-4.0039-0.76562-5.7188-1.8086-1.3867-0.83984-1.5547-2.5156-1.6641-5.1758-0.015626-0.38672-0.03125-0.77344-0.054688-1.1562-0.046875-0.76562-0.0625-1.5625-0.074219-2.3594 0-0.015625 0.007813-0.027344 0.007813-0.042969zm19.121-36.855c12.023 0 19.699 2.9141 19.699 4.9219 0 2.0078-7.6758 4.9219-19.699 4.9219-12.027 0-19.699-2.9141-19.699-4.9219 0-2.0039 7.6758-4.9219 19.699-4.9219z"/>
  <path d="m92.152 87.703c1.1289-1.7734 0.89062-3.9336 0.89062-5.4023v-17.566c0.054687-0.17969 0.10547-0.35938 0.10547-0.55469 0-6.6367-37.234-6.6445-37.234 0 0 0.09375 0.039063 0.17578 0.050782 0.26953-0.035156 0.10156-0.089844 0.18359-0.11719 0.29297-0.46875 1.8398-0.42969 3.7891-0.40625 5.668 0.042969 3.5859 0.082032 7.1719 0.125 10.758 0.070313 5.8828 0.72656 8 8.7422 10.781 8.3281 2.8867 25.02 3.0859 30.301 1.3867 1.1523-0.37109 2.4258-1.1211 2.4453-2.2852 0.03125-1.8359-3.6406-3.1211-4.9023-3.3477zm-33.043-1.1328c-0.68359-1.0859-0.67578-2.3828-0.66797-3.7539 0-0.20312 0.007813-4.1836 0.003906-3.9297 6.8281 3.793 25.547 3.7891 32.344-0.003907-0.12109 4.2969 0.58594 6.8477-0.89062 8.125-3.2109 2.7812-11.129 2.9844-15.371 2.9844-4.0469 0-13.254 0.023437-15.418-3.4219zm31.727-10.449c-1.4062 1.6758-7.7812 3.4023-16.223 3.4023-8.3672 0-14.609-1.6562-16.16-3.332-0.011719-1.6914 0-6.7305 0.015625-9.293 6.75 3.0273 25.91 2.9961 32.367-0.11328zm-16.305-14.715c9.7109 0 15.496 1.6758 16.332 2.7109-0.003906 0.042968-0.023437 0.078124-0.023437 0.12109v0.027344c-0.91016 1.0352-6.6758 2.6836-16.305 2.6836-10.109 0-15.977-1.8164-16.422-2.707 0.44141-1.0195 6.3086-2.8359 16.418-2.8359z"/>
  <path d="m63.84 19.547c-0.34375-1.3516-0.44922-2.7383-0.31641-4.1289 0.14062-1.4492-2.0547-1.6719-2.1953-0.21094-0.15625 1.6445-0.03125 3.2891 0.37109 4.8828 0.36328 1.4141 2.5 0.875 2.1406-0.54297z"/>
  <path d="m67.168 22.281c1.1523 0 1.0508-1.1133 3.832-5.8047 0.69922-1.2773-1.2344-2.3398-1.9375-1.0586l-2.8633 5.2344c-0.40234 0.73047 0.13672 1.6289 0.96875 1.6289z"/>
  <path d="m72.523 24.504 2.9258-4.1445c0.84375-1.1914-0.96094-2.4648-1.8008-1.2734l-2.9258 4.1484c-0.84375 1.1914 0.96094 2.4609 1.8008 1.2695z"/>
 </g>
</svg>
