<?xml version="1.0" encoding="UTF-8"?>
<svg width="30px" height="30px" version="1.1" viewBox="0 0 100 100" xmlns="http://www.w3.org/2000/svg">
 <path d="m34.543 37.277c-3.1406 1.75-5.9492 3.7969-8.0312 5.8125-2.6328 2.5508-4.0625 5.1602-4.0625 7.0781s1.4297 4.5234 4.0625 7.0781c5.3164 5.1484 15.41 10.516 23.469 10.516 3.8359 0 8.1328-1.2148 12.152-3.0469l4.418 4.3906c0.76562 0.76562 2.0156 0.76562 2.7812 0 0.76953-0.76172 0.76953-2.0039 0-2.7656l-3.5234-3.5039c2.9805-1.6992 5.6445-3.6602 7.6406-5.5898 2.6328-2.5547 4.0664-5.1602 4.0664-7.0781s-1.4336-4.5273-4.0664-7.0781c-5.3164-5.1484-15.406-10.516-23.469-10.516-3.7031 0-7.832 1.1328-11.734 2.8555l-4.5625-4.5352c-0.76562-0.76562-2.0156-0.76562-2.7812 0-0.76953 0.76172-0.76953 2.0039 0 2.7656zm7.3633 7.3242c-1.1016 1.582-1.7461 3.5-1.7461 5.5664 0 5.3984 4.4062 9.7812 9.8398 9.7812 2.0781 0 4.0078-0.64062 5.5938-1.7344l-2.8594-2.8438c-0.81641 0.42578-1.75 0.66406-2.7344 0.66406-3.2578 0-5.9023-2.6289-5.9023-5.8672 0-0.98047 0.23828-1.9062 0.66797-2.7188zm16.414 10.789c0.96094-1.5117 1.5195-3.3047 1.5195-5.2227 0-5.4023-4.4102-9.7852-9.8398-9.7852-1.9297 0-3.7305 0.55469-5.2539 1.5078l2.9023 2.8906c0.72266-0.3125 1.5156-0.48438 2.3516-0.48438 3.2578 0 5.9023 2.6289 5.9023 5.8711 0 0.82812-0.17188 1.6172-0.48438 2.3359z" fill-rule="evenodd"/>
</svg>
