<?xml version="1.0" encoding="UTF-8"?>
<svg width="80px" height="80px" version="1.1" viewBox="0 0 100 100" xmlns="http://www.w3.org/2000/svg">
 <g>
  <path d="m37.922 29.344 0.125 18.285c0.003906 0.60938 0.49609 1.0977 1.1016 1.0977h0.003906c4.7188-0.12891 5.0312 0.21094 5.5859-0.35156 0.60938-0.61719 0.20703-0.27734 0.19141-19.066-0.003907-0.60938-0.49609-1.0977-1.1016-1.0977-0.14844 0-4.9609 0.027343-4.8125 0.027343-0.28906-0.003906-1.0977 0.49609-1.0938 1.1055zm4.8164 1.0742 0.10938 16.078-2.6016 0.015625-0.10938-16.078z"/>
  <path d="m48.863 48.871c0.14844 0 4.9609-0.027344 4.8125-0.027344 0.29297 0 0.57422-0.12109 0.77734-0.32812 0.60938-0.61719 0.20703 0.375 0.15625-26.949-0.003906-0.60547-0.49609-1.0977-1.1016-1.0977-5.332 0-5.1914-0.050781-5.5938 0.35156-0.60937 0.61719-0.20703-0.375-0.15625 26.949 0.007813 0.61328 0.5 1.1016 1.1055 1.1016zm3.5508-26.184 0.14844 23.957-2.6016 0.015625-0.14844-23.957z"/>
  <path d="m34.379 36.852c-0.14844 0-4.9609 0.027344-4.8125 0.027344-0.29297 0-0.57422 0.12109-0.77734 0.32812-0.57422 0.58203-0.20703 0.46094-0.25391 10.422 0.003906 0.60547 0.49609 1.0977 1.1016 1.0977h0.003906c4.7188-0.12891 5.0312 0.21094 5.5859-0.35156 0.57422-0.58203 0.20703-0.46094 0.25391-10.422-0.003907-0.61328-0.49609-1.1016-1.1016-1.1016zm-3.6484 9.6602-0.050781-7.4336 2.6016-0.015625 0.050781 7.4336z"/>
  <path d="m25.82 48.484c0.59375-0.60156 0.20703-0.46484 0.22656-15.379-0.003906-0.60547-0.49609-1.0977-1.1016-1.0977h-0.007812l-4.8086 0.027344c-0.29297 0-0.57422 0.12109-0.77734 0.32812-0.20703 0.20703-0.32031 0.48828-0.31641 0.78125l0.089844 14.594c0.003906 0.60547 0.49609 1.0977 1.1016 1.0977 0.14844 0 4.9609-0.027344 4.8125-0.027344 0.29688 0.003906 0.57422-0.11719 0.78125-0.32422zm-4.4961-1.8594-0.074219-12.387 2.6016-0.015625 0.074219 12.391z"/>
  <path d="m23.605 29.785c0.29297 0 0.58594-0.11719 0.80078-0.34766 3.5898-3.8047 8.5039-6.4609 13.656-7.457l-0.22266 0.29688c-0.875 1.1641 0.88281 2.4922 1.7617 1.3281l2.1133-2.8086c0.36328-0.48047 0.26953-1.1641-0.20312-1.5352-0.9375-0.73047-1.9805-1.3125-3.0938-1.7266-1.3672-0.51172-2.1367 1.5586-0.76953 2.0664 0.10937 0.039063 0.20703 0.10938 0.31641 0.15234-5.7773 1.0312-11.125 3.8867-15.164 8.168-0.41797 0.44531-0.39844 1.1406 0.046875 1.5586 0.21484 0.20703 0.48438 0.30469 0.75781 0.30469z"/>
  <path d="m61.211 65.527h-27.516c-0.60937 0-1.1016 0.49219-1.1016 1.1016s0.49219 1.1016 1.1016 1.1016h27.516c1.4609 0.003906 1.4609-2.2031 0-2.2031z"/>
  <path d="m56.734 56.332h-34.047c-1.457 0-1.4609 2.207 0 2.207h34.047c1.4609 0 1.4609-2.207 0-2.207z"/>
  <path d="m69.512 69.113c-0.09375-21.113-1.1055-43.492-0.45312-63.938 0.019531-0.57031-0.40234-1.0625-0.97266-1.1289-32.719-3.8984-53.398 0.18359-61.262 1.043-1.2539 0.13672-0.13672 0.62891-1.9102 3.4453 0.15625 4.2734 2.918 67.836 2.9375 68.043-0.21094 0.69531 0.23438 1.5039 1.3672 1.3906 14.539-1.8945 29.008-2.0156 41.602-1.7891-2.8672 2.4961-5.5859 5.1641-8.1094 8.0078 7.875 8.7148 18.379 14.836 29.91 13.145 8.043-0.75 18.039-6.2422 22.352-15.047 0.1875-0.37891 0.14062-0.82812-0.12109-1.1641-5.8477-7.5156-15.992-12.309-25.34-12.008zm-8.3164 24.258c-4.6406-1.8164-9.1406-5.2188-13.395-10.164 3.4844-5.0156 8.6836-8.7578 14.488-10.609-6.4219 5.6406-6.5156 15.484-1.0938 20.773zm8.957 1.0078c-9.3164 0.53125-13.25-9.8555-8.8867-17.152 1.8047-3.0156 4.9727-5.543 8.5586-5.3281 4.2734 0.25 7.4375 1.8242 9.4062 4.6758 2.2695 3.2891 2.5508 7.918 0.69531 11.516-1.8477 3.5938-5.6836 6.0625-9.7734 6.2891zm-59.859-18.762c0.42969-3.9922 0.17578-14.227 0.085937-24.438-0.023437-15.426-0.074218-28.742-2.1328-44.035 13.82-1.6562 12.293-1.8672 22.422-2.2578 13.41-0.52734 21.543-0.47266 36.156 1.2266-0.37891 13.043-0.10938 26.941 0.15625 40.391 0.14453 7.4805 0.29297 15.195 0.32812 22.609-3.625-0.042969-11.973 3.6094-13.867 4.9062-12.91-0.27734-28.012-0.27734-43.148 1.5977zm67.203 18.418c7.9023-5.5039 7.4336-16.469 0.90234-21.473 5.5078 1.6953 10.68 5 14.277 9.3711-3.1562 5.9531-8.9375 9.9883-15.18 12.102z"/>
  <path d="m67.633 78.449c-4.9922 2.5273-2.9727 10.094 2.5234 10.094 1.9727 0 3.8945-1.1133 4.8125-2.875 1.0703-2.0547 0.59766-4.7812-1.0977-6.3477-1.7109-1.582-4.1602-1.9258-6.2383-0.87109zm5.375 6.1992c-0.60937 1.1758-2.1172 1.8945-3.4219 1.6328-2.8398-0.55469-3.6523-4.5-0.95703-5.8633 2.8359-1.4336 5.7812 1.5391 4.3789 4.2305z"/>
 </g>
</svg>
