<?xml version="1.0" encoding="UTF-8"?>
<svg width="24px" height="24px" version="1.1" viewBox="0 0 100 100" xmlns="http://www.w3.org/2000/svg">
 <path d="m50.102 32.289c-8.0586 0-18.152 5.3945-23.469 10.574-2.6328 2.5664-4.0664 5.1875-4.0664 7.1172 0 1.9297 1.4336 4.5508 4.0664 7.1172 5.3164 5.1797 15.41 10.578 23.469 10.578 8.0586 0 18.152-5.3984 23.469-10.578 2.6328-2.5664 4.0625-5.1875 4.0625-7.1172 0-1.9297-1.4297-4.5508-4.0625-7.1172-5.3164-5.1797-15.41-10.574-23.469-10.574zm0.015626 7.8516c-5.4297 0-9.8398 4.4102-9.8398 9.8398 0 5.4297 4.4102 9.8398 9.8398 9.8398 5.4336 0 9.8398-4.4102 9.8398-9.8398 0-5.4297-4.4062-9.8398-9.8398-9.8398zm0 3.9336c3.2578 0 5.9062 2.6484 5.9062 5.9062 0 3.2578-2.6484 5.9023-5.9062 5.9023-3.2578 0-5.9023-2.6445-5.9023-5.9023 0-3.2578 2.6445-5.9062 5.9023-5.9062z" fill-rule="evenodd"/>
</svg>
