<?xml version="1.0" encoding="UTF-8"?>
<svg width="80px" height="80px" version="1.1" viewBox="0 0 100 100" xmlns="http://www.w3.org/2000/svg">
 <g>
  <path d="m98.688 87.848c-0.25-0.94531-7.9766-11.402-12.602-18.367-0.11328-0.16797-0.26953-0.28125-0.44141-0.36328 0.42578-2.2344-0.25-5.1172-1.1562-6.6562 10.297-14.586-0.074219-36.574-18.949-34.816-0.46484-1.5195-1.0938-3.1602-1.3594-3.8438-1.9883-5.1875-7.2305-10.391-14.004-13.914-0.011719-0.007813-0.023437-0.011719-0.035156-0.015625l-0.003906-0.003906h-0.003907c-0.85937-0.46484-1.7109-0.875-2.5234-1.2148-6.5898-2.8164-13.738-3.2539-21.852-1.3398-0.027343 0.003906-0.050781 0.011719-0.078124 0.015625-0.37109 0.085937-0.74609 0.20312-1.0508 0.32031-0.48047 0.15625-0.89844 0.30859-1.2969 0.47266-0.046875 0.015625-0.125 0.046875-0.19922 0.082031-4.6719 1.793-8.8555 4.6523-12.148 8.25-18.988 18.605-10.293 51 15.906 57.859 9.4805 2.4727 18.516 0.93359 26.672-4.7734 6.1758 4.0938 13.867 4.5078 20.012 2.0078 0.1875 1.6992 1.9023 3.0781 3.6016 2.8906 2.1328 5.1914 5.9727 9.5156 9.3984 13.965 1.0664 1.3828 3.168 4.3008 4.8359 4.875 0.65625 0.67969 3.6992 0.9375 5.5703-0.24609 1.4023-0.88281 2.1406-2.7227 2.2539-4.1562 0.035156-0.43359-0.19531-0.82031-0.54688-1.0273zm-15.434-18.375c-1.6484 3.0742-5.9922 3.3633-8.0508 0.48047 2.9961-1.2734 5.6367-3.1836 7.7617-5.5742 0.63281 1.6133 0.89453 3.9609 0.28906 5.0938zm-15.605-39.73c12.465 0 20.668 12.023 18.25 24.027-2.6797 13.277-17.629 19.82-29.395 13-11.723-6.7734-12.781-24.527-1.1406-32.984 3.6133-2.625 8.0039-4.043 12.285-4.043zm-4.3164-1.7812c-6.5625 1.2852-12.195 5.3281-15.367 10.676-6.3281 8.7266-5.4102 21.16 3.0195 28.883-26.512 14.652-55.094-12.797-44.496-39.805 30.301 13.992 28.543 13.324 29.004 13.324 0.26562 0 0.53125-0.097656 0.73828-0.28516 0.019531-0.019531 0.03125-0.042968 0.050781-0.0625 0.15234-0.035156 0.29688-0.089844 0.42578-0.19141 7.6758-5.9883 16.277-11.766 24.383-18.043 0.90625 1.5586 1.6953 3.7852 2.2422 5.5039zm-3.4531-7.3516c-6.9961 5.4297-14.039 10.203-22.133 16.344l12.375-24.59c3.4219 1.9258 7.1992 4.8086 9.7578 8.2461zm-13.117-9.9258c0.45703 0.19141 0.92969 0.41406 1.4102 0.64844l-12.68 25.195-9.1094-26.559c-0.046874-0.16797-0.09375-0.33594-0.14062-0.50391 7.6484-1.8086 14.359-1.4141 20.52 1.2188zm49.043 80.484c-0.67188 0.42188-2.2344 0.66406-3.2344 0.3125-4.7617-7.1602-7.4648-10.605-12.062-17.469 1.6484-0.36328 3.1602-1.3281 4.168-2.6836 4.8086 7.1992 7.1992 10.109 12.043 17.41 0.070312 0.10547 0.17188 0.16797 0.26562 0.24219-0.14453 0.92188-0.61328 1.832-1.1797 2.1875z"/>
  <path d="m68.586 65.777c16.207-1.3203 20.465-24.828 4.3125-31.348-0.007813-0.003907-0.015626-0.007813-0.023438-0.007813h-0.003906c-0.007813-0.003906-0.015625-0.003906-0.023438-0.007813l-0.16797-0.0625c-0.003907 0-0.003907 0.003907-0.007813-0.003906-9.7539-3.6562-19.895 2.3828-21.852 11.984-2.1562 10.695 6.6211 20.551 17.766 19.445zm-1.043-2.1406h-0.011719c-4.5117 0.26953-7.8164-1.9375-7.9648-1.9844-0.33594-0.23047-1.1484-0.68359-2.2656-1.7109 2.9219-4.8125 3.8984-6.4258 3.8047-6.2734 3.7695 2.5195 4.2227 3.4297 5.1562 3.1094 1.2891-0.4375 0.45703-2.2422 5.0898-11.887 1.8555 2.2617 3.5586 4.6719 5.0703 7.1758 0.47656 0.78906 1.5977 0.66406 1.9492-0.11719 0.59766-1.332 1.4492-2.5273 2.4844-3.543 0.60156 7.7109-5.0352 14.785-13.312 15.23zm-14.559-16.871c1.7422-8.5586 10.789-13.207 18.066-10.637 0.15234 0.097656 7.2969 2.0352 9.3711 9.7305-1.2266 0.97266-2.293 2.1289-3.1289 3.4492-1.6133-2.5-3.4102-4.8945-5.3555-7.1367-0.51562-0.59375-1.4648-0.47266-1.8164 0.22266-1.8828 3.7148-3.4922 7.6016-4.8047 11.562-3.8086-2.5781-3.9648-3.1406-4.7656-2.957-0.30078 0.0625-0.5625 0.24609-0.71875 0.50781l-4.0898 6.7539c-2.5039-3.1836-3.5859-7.3828-2.7578-11.496z"/>
  <path d="m66.18 18.641 2.9609-6.8516c0.24219-0.55859-0.015625-1.2109-0.57422-1.4492-0.5625-0.24219-1.207 0.015625-1.4492 0.57422l-2.9609 6.8516c-0.57812 1.3359 1.4453 2.2109 2.0234 0.875z"/>
  <path d="m70.613 23.285c0.95312 0 0.9375-0.71875 5.7383-6.293 0.39063-0.46875 0.32422-1.1641-0.14453-1.5508-0.46875-0.39062-1.1641-0.32422-1.5547 0.14453l-4.8867 5.8945c-0.38672 0.46875-0.32422 1.1641 0.14453 1.5508 0.20703 0.17188 0.45703 0.25391 0.70312 0.25391z"/>
  <path d="m76.406 26.641c0.21875 0-0.26953 0.082031 6.6211-1.5 0.59375-0.13672 0.96484-0.73047 0.82812-1.3242s-0.72656-0.96484-1.3242-0.82422l-6.3711 1.4688c-1.2734 0.29297-1.0625 2.1797 0.24609 2.1797z"/>
 </g>
</svg>
