<?xml version="1.0" encoding="UTF-8"?>
<svg width="20px" height="20px" version="1.1" viewBox="0 0 100 100" xmlns="http://www.w3.org/2000/svg">
 <path d="m16.961 5h66.074c6.5859 0 11.965 5.3789 11.965 11.961v66.074c0 6.5859-5.3789 11.965-11.961 11.965h-66.078c-6.582 0-11.961-5.3789-11.961-11.961v-66.078c0-6.582 5.3789-11.961 11.961-11.961zm62.945 74.336v-4.5586h-17.09v4.5586zm0-11.395v-4.5586l-17.09 0.003907v4.5586zm2.1328-37.023v-4.5586h-21.359v4.5586zm-47.457 49.605 3.2227-3.2227-5.9414-5.9414 5.9414-5.9414-3.2227-3.2227-5.9414 5.9414-5.9414-5.9414-3.2227 3.2227 5.9414 5.9414-5.9414 5.9414 3.2227 3.2227 5.9414-5.9414zm4.7383-49.605v-4.5586h-8.4023v-8.4023h-4.5586v8.4023h-8.4023v4.5586h8.4023v8.4023h4.5586v-8.4023zm51.121 21.359h-38.164v38.164h30.762c4.0664 0 7.4062-3.3359 7.4062-7.4062zm-42.719 0h-38.164v30.762c0 4.0664 3.3359 7.4062 7.4062 7.4062h30.762zm-38.164-4.5547h38.164v-38.164h-30.762c-4.0664 0-7.4062 3.3359-7.4062 7.4062zm42.719 0h38.164v-30.762c0-4.0703-3.3359-7.4062-7.4062-7.4062h-30.762z" fill-rule="evenodd"/>
</svg>
