<?xml version="1.0" encoding="UTF-8"?>
<svg width="24px" height="24px" version="1.1" viewBox="0 0 100 100" xmlns="http://www.w3.org/2000/svg">
 <path d="m91.719 40.629c1.3203 1.3203 2.0508 3.0781 2.0508 4.9492s-0.73047 3.6289-2.0508 4.9492l-40.301 40.301c-0.39062 0.39062-0.89844 0.58984-1.4102 0.58984-0.51172 0-1.0195-0.19922-1.4102-0.58984l-40.316-40.297c-2.7305-2.7305-2.7305-7.1719 0-9.8984 2.7305-2.7305 7.1719-2.7305 9.8984 0l31.82 31.816 31.82-31.82c1.3203-1.3203 3.0781-2.0508 4.9492-2.0508 1.8711 0 3.6289 0.73047 4.9492 2.0508zm-43.129 20.199c0.39062 0.39062 0.89844 0.58984 1.4102 0.58984s1.0195-0.19922 1.4102-0.58984l40.301-40.301c1.3203-1.3203 2.0508-3.0781 2.0508-4.9492s-0.73047-3.6289-2.0508-4.9492c-1.3203-1.3203-3.0781-2.0508-4.9492-2.0508-1.8711 0-3.6289 0.73047-4.9492 2.0508l-31.812 31.82-31.82-31.82c-2.7305-2.7305-7.1719-2.7305-9.8984 0-2.7305 2.7305-2.7305 7.1719 0 9.8984z"/>
</svg>
