<?xml version="1.0" encoding="UTF-8"?>
<svg width="24px" height="24px" version="1.1" viewBox="0 0 100 100" xmlns="http://www.w3.org/2000/svg">
 <path d="m34.117 20.883c-16.051 0-29.117 13.066-29.117 29.117s13.066 29.117 29.117 29.117c0.5 0 1-0.011719 1.4961-0.039063 5.2891-0.26953 10.207-1.9609 14.387-4.6953 4.5703 2.9883 10.027 4.7344 15.883 4.7344 16.051 0 29.117-13.066 29.117-29.117s-13.066-29.117-29.117-29.117c-5.8555 0-11.312 1.7461-15.883 4.7344-4.5703-2.9883-10.027-4.7344-15.883-4.7344zm-4.0664 5.6641h8.1328c2.6523 0.45312 5.1602 1.3281 7.4336 2.5781-0.023438 0.023438-0.050782 0.046875-0.074219 0.070312l-23.039-0.003906c2.3047-1.2852 4.8477-2.1836 7.5469-2.6484zm31.766 0h8.1328c2.6992 0.46094 5.2422 1.3633 7.5469 2.6484l-23.039-0.003906c-0.023437-0.023437-0.046875-0.046875-0.074219-0.070312 2.2734-1.25 4.7773-2.1211 7.4336-2.5781zm-44.383 6.4336h24.848c-0.61328 0.84766-1.1836 1.7344-1.7031 2.6484h-25.445c0.70703-0.93359 1.4688-1.8281 2.3047-2.6484zm31.766 0h1.6016c0.60156 0.58984 1.1758 1.2031 1.7109 1.8516 0.21094 0.25391 0.39062 0.53125 0.59375 0.79688h-6.2109c0.70703-0.93359 1.4688-1.8281 2.3047-2.6484zm8.5195 0h24.848c0.83594 0.82031 1.5938 1.7109 2.3047 2.6484h-25.449c-0.52344-0.91406-1.0898-1.7969-1.7031-2.6484zm-44.934 6.4336h25.98c-0.33984 0.86328-0.63672 1.7461-0.89453 2.6484h-26.203c0.32031-0.91016 0.69141-1.793 1.1172-2.6484zm31.766 0h10.898c0.42188 0.85547 0.79688 1.7383 1.1172 2.6484h-13.133c0.32031-0.91016 0.69141-1.793 1.1172-2.6484zm16.68 0h25.98c0.42187 0.85547 0.79687 1.7383 1.1172 2.6484h-26.203c-0.25391-0.90234-0.55469-1.7852-0.89453-2.6484zm-50.555 6.4336h26.387c-0.125 0.87109-0.21484 1.7539-0.26172 2.6484h-26.434c0.054687-0.89844 0.15625-1.7812 0.30859-2.6484zm31.766 0h15.117c0.097656 0.56641 0.20312 1.1328 0.26172 1.7109 0.03125 0.30859 0.027344 0.625 0.046876 0.9375h-15.734c0.054688-0.89844 0.15625-1.7812 0.30859-2.6484zm20.492 0h26.387c0.15234 0.86719 0.25 1.75 0.30859 2.6484h-26.434c-0.046874-0.89453-0.13672-1.7773-0.26172-2.6484zm-52.527 6.4336h26.457c0.070313 0.89453 0.17969 1.7773 0.32812 2.6484h-26.383c-0.17969-0.86719-0.31641-1.75-0.40234-2.6484zm31.766 0h15.656c-0.085937 0.89844-0.21875 1.7812-0.40234 2.6484h-14.852c-0.18359-0.86719-0.31641-1.75-0.40234-2.6484zm20.965 0h26.453c-0.085938 0.89844-0.21875 1.7812-0.40234 2.6484h-26.379c0.14844-0.87109 0.25781-1.7539 0.32812-2.6484zm-51.188 6.4297h26.148c0.28516 0.90234 0.60938 1.7852 0.97656 2.6484h-25.914c-0.46094-0.84766-0.85156-1.7383-1.2109-2.6445zm31.766 0h12.57c-0.35547 0.90625-0.74609 1.7969-1.207 2.6484h-10.156c-0.45703-0.84766-0.85156-1.7383-1.207-2.6445zm18.188 0h26.148c-0.35547 0.90625-0.74609 1.7969-1.207 2.6484h-25.918c0.36719-0.86328 0.69531-1.7461 0.97656-2.6484zm-46.195 6.4336h25.316c0.5625 0.91797 1.1797 1.7969 1.8398 2.6484l-24.574 0.003906c-0.92187-0.82031-1.7969-1.6914-2.582-2.6484zm31.766 0h5.0547c-0.48828 0.59766-1.0039 1.1719-1.5508 1.7148-0.30859 0.3125-0.64844 0.59375-0.97656 0.88672-0.90234-0.80859-1.7578-1.6641-2.5273-2.5977zm11.504 0h25.316c-0.78516 0.95312-1.6602 1.8281-2.582 2.6484l-24.574 0.003906c0.65625-0.84766 1.2773-1.7266 1.8398-2.6484zm-34.922 6.4336h20.133c-3.0586 1.4258-6.4609 2.2422-10.066 2.2422-3.6055 0-7.0078-0.81641-10.066-2.2422zm31.766 0h20.133c-3.0586 1.4258-6.4609 2.2422-10.066 2.2422s-7.0078-0.81641-10.066-2.2422z" fill-rule="evenodd"/>
</svg>
