<?xml version="1.0" encoding="UTF-8"?>
<svg width="32px" height="32px" version="1.1" viewBox="0 0 100 100" xmlns="http://www.w3.org/2000/svg">
 <path d="m49.578 14.062c-20.445 0-37.078 14.023-37.078 31.258 0 8.793 4.3047 17.051 11.891 22.957-1.7344 5.832-3.9766 10.008-6.5312 12.137-1.1172 0.92969-1.4453 2.5078-0.78906 3.8047 0.53906 1.0703 1.6328 1.7188 2.7891 1.7188 0.24219 0 0.49219-0.027344 0.73828-0.085938 0.48438-0.11719 11.555-2.8555 21.75-9.8945 2.4414 0.41406 4.8672 0.62109 7.2266 0.62109 20.445 0 37.078-14.023 37.078-31.258 0-17.234-16.633-31.258-37.078-31.258zm-0.35938 12.5c2.1562 0 3.9062 1.75 3.9062 3.9062s-1.75 3.9062-3.9062 3.9062-3.9062-1.75-3.9062-3.9062 1.75-3.9062 3.9062-3.9062zm3.9062 35.938h-6.25c-1.7266 0-3.125-1.3984-3.125-3.125s1.3984-3.125 3.125-3.125v-10.938c-1.7266 0-3.125-1.3984-3.125-3.125s1.3984-3.125 3.125-3.125h3.125c1.7266 0 3.125 1.3984 3.125 3.125v14.062c1.7266 0 3.125 1.3984 3.125 3.125s-1.3984 3.125-3.125 3.125z"/>
</svg>
