<?xml version="1.0" encoding="UTF-8"?>
<svg width="24px" height="24px" version="1.1" viewBox="0 0 100 100" xmlns="http://www.w3.org/2000/svg">
 <path d="m34.117 20.883c-16.051 0-29.117 13.066-29.117 29.117s13.066 29.117 29.117 29.117c0.5 0 1-0.011719 1.4961-0.039063 5.2891-0.26953 10.207-1.9609 14.387-4.6953 4.5703 2.9883 10.027 4.7344 15.883 4.7344 16.051 0 29.117-13.066 29.117-29.117s-13.066-29.117-29.117-29.117c-5.8555 0-11.312 1.7461-15.883 4.7344-4.5703-2.9883-10.027-4.7344-15.883-4.7344zm0 5.293c4.1211 0 7.9961 1.0391 11.371 2.8711 0.042969 0.023437 0.082031 0.054687 0.125 0.078125-5.4492 5.293-8.8477 12.695-8.8477 20.875s3.3984 15.582 8.8516 20.875c-3.4062 1.875-7.3242 2.9453-11.5 2.9453-13.191 0.003907-23.824-10.629-23.824-23.82 0-0.82422 0.039062-1.6367 0.12109-2.4414 1.2148-12.035 11.336-21.383 23.703-21.383zm31.766 0c13.191 0 23.824 10.633 23.824 23.824s-10.633 23.824-23.824 23.824c-4.1758 0-8.0898-1.0703-11.5-2.9453 0.10156-0.10156 0.21094-0.19531 0.3125-0.29688 5.2734-5.2773 8.5391-12.555 8.5391-20.582 0-8.1797-3.3984-15.582-8.8516-20.875 3.4062-1.875 7.3242-2.9453 11.5-2.9453zm-16.684 6.8047h1.6016c0.60156 0.58984 1.1758 1.2031 1.7109 1.8516 0.21094 0.25391 0.39062 0.53125 0.59375 0.79688h-6.2109c0.70703-0.93359 1.4688-1.8281 2.3047-2.6484zm-4.6484 6.4336h10.898c0.42188 0.85547 0.79688 1.7383 1.1172 2.6484h-13.133c0.32031-0.91016 0.69141-1.793 1.1172-2.6484zm-2.1094 6.4336h15.117c0.097656 0.56641 0.20312 1.1328 0.26172 1.7109 0.03125 0.30859 0.027344 0.625 0.046876 0.9375h-15.734c0.054688-0.89844 0.15625-1.7812 0.30859-2.6484zm-0.26953 6.4336h15.656c-0.085937 0.89844-0.21875 1.7812-0.40234 2.6484h-14.852c-0.18359-0.86719-0.31641-1.75-0.40234-2.6484zm1.543 6.4297h12.57c-0.35547 0.90625-0.74609 1.7969-1.207 2.6484h-10.156c-0.45703-0.84766-0.85156-1.7383-1.207-2.6445zm3.7578 6.4336h5.0547c-0.48828 0.59766-1.0039 1.1719-1.5508 1.7148-0.30859 0.3125-0.64844 0.59375-0.97656 0.88672-0.90234-0.80859-1.7578-1.6641-2.5273-2.5977z" fill-rule="evenodd"/>
</svg>
