<?xml version="1.0" encoding="UTF-8"?>
<svg width="24px" height="24px" version="1.1" viewBox="0 0 100 100" xmlns="http://www.w3.org/2000/svg">
 <path d="m34.117 20.883c-16.051 0-29.117 13.066-29.117 29.117s13.066 29.117 29.117 29.117c5.8555 0 11.312-1.7461 15.883-4.7344 4.5703 2.9883 10.027 4.7344 15.883 4.7344 16.051 0 29.117-13.066 29.117-29.117s-13.066-29.117-29.117-29.117c-5.8555 0-11.312 1.7461-15.883 4.7344-4.5703-2.9883-10.027-4.7344-15.883-4.7344zm31.766 5.293c13.191 0 23.824 10.633 23.824 23.824s-10.633 23.824-23.824 23.824c-4.1758 0-8.0898-1.0703-11.5-2.9453 5.4531-5.2969 8.8516-12.695 8.8516-20.875 0-8.1797-3.3984-15.582-8.8516-20.875 3.4062-1.875 7.3242-2.9453 11.5-2.9453zm-35.832 0.37109h8.2227c2.6211 0.46094 5.0938 1.3398 7.3398 2.5781-0.023437 0.023438-0.042969 0.046875-0.066406 0.070312l-23.043-0.003906c2.3047-1.2852 4.8477-2.1836 7.5469-2.6484zm-12.617 6.4336h24.855c-0.61719 0.85156-1.1875 1.7305-1.707 2.6484h-25.453c0.70703-0.93359 1.4688-1.8281 2.3047-2.6484zm31.832 0h1.4688c0.84766 0.82812 1.6445 1.7031 2.3594 2.6484h-6.1875c0.71875-0.94531 1.5117-1.8203 2.3594-2.6484zm-36.48 6.4336h25.98c-0.33984 0.86328-0.63672 1.7461-0.89062 2.6484h-26.207c0.32031-0.91016 0.69141-1.793 1.1172-2.6484zm31.781 0h10.867c0.42578 0.85938 0.82031 1.7344 1.1445 2.6484h-13.156c0.32422-0.91406 0.71875-1.7891 1.1445-2.6484zm-33.891 6.4336h26.391c-0.125 0.87109-0.21875 1.7539-0.26562 2.6484h-26.434c0.054687-0.89844 0.15625-1.7812 0.30859-2.6484zm31.746 0h15.152c0.15234 0.86719 0.25781 1.75 0.3125 2.6484h-15.777c0.054687-0.89844 0.16016-1.7812 0.3125-2.6484zm-32.016 6.4336h26.457c0.070313 0.89453 0.17969 1.7773 0.32812 2.6484h-26.383c-0.17969-0.86719-0.31641-1.75-0.40234-2.6484zm31.766 0h15.652c-0.085938 0.89844-0.21484 1.7812-0.39844 2.6484h-14.852c-0.18359-0.86328-0.3125-1.75-0.39844-2.6484zm-30.223 6.4297h26.148c0.28516 0.90234 0.61328 1.7852 0.98047 2.6484h-25.918c-0.46094-0.84766-0.85156-1.7383-1.2109-2.6445zm31.75 0h12.594c-0.35938 0.91797-0.80078 1.7891-1.2695 2.6484h-10.051c-0.46875-0.85547-0.90625-1.7305-1.2695-2.6484zm-27.996 6.4336h25.328c0.5625 0.91797 1.1719 1.8008 1.832 2.6484l-24.574 0.003906c-0.92187-0.82031-1.7969-1.6914-2.582-2.6484zm31.836 0h4.918c-0.76172 0.92188-1.5664 1.8047-2.457 2.6016-0.89062-0.79688-1.6953-1.6797-2.457-2.5977zm-23.488 6.4336h20.168c-3.0664 1.4336-6.4844 2.2422-10.102 2.2422-3.6055 0-7.0078-0.81641-10.066-2.2422z" fill-rule="evenodd"/>
</svg>
