<?xml version="1.0" encoding="UTF-8"?>
<svg width="24px" height="24px" version="1.1" viewBox="0 0 100 100" xmlns="http://www.w3.org/2000/svg">
 <path d="m65.883 20.883c16.051 0 29.117 13.066 29.117 29.117s-13.066 29.117-29.117 29.117c-5.8555 0-11.312-1.7461-15.883-4.7344-4.5703 2.9883-10.027 4.7344-15.883 4.7344-16.051 0-29.117-13.066-29.117-29.117s13.066-29.117 29.117-29.117c5.8555 0 11.312 1.7461 15.883 4.7344 4.5703-2.9883 10.027-4.7344 15.883-4.7344zm-31.766 5.293c-13.191 0-23.824 10.633-23.824 23.824s10.633 23.824 23.824 23.824c4.1758 0 8.0898-1.0703 11.5-2.9453-5.4531-5.2969-8.8516-12.699-8.8516-20.879s3.3984-15.582 8.8516-20.875c-3.4062-1.875-7.3242-2.9453-11.5-2.9453zm35.832 0.37109h-8.2227c-2.6211 0.46094-5.0938 1.3398-7.3398 2.5781 0.023437 0.023438 0.042969 0.046875 0.066406 0.070312l23.043-0.003906c-2.3047-1.2852-4.8477-2.1836-7.5469-2.6484zm12.617 6.4336h-24.855c0.61719 0.85156 1.1875 1.7305 1.707 2.6484h25.453c-0.71094-0.9375-1.4688-1.8281-2.3047-2.6484zm-31.832 0h-1.4688c-0.84766 0.82812-1.6445 1.7031-2.3594 2.6484h6.1875c-0.71875-0.94531-1.5117-1.8203-2.3594-2.6484zm36.48 6.4336h-25.98c0.33984 0.86328 0.63672 1.7461 0.89062 2.6484h26.207c-0.32031-0.91016-0.69531-1.793-1.1172-2.6484zm-31.781 0h-10.867c-0.42578 0.85938-0.82031 1.7344-1.1445 2.6484h13.156c-0.32422-0.91406-0.71484-1.7891-1.1445-2.6484zm33.891 6.4336h-26.391c0.125 0.87109 0.21875 1.7539 0.26562 2.6484h26.434c-0.058593-0.89844-0.15625-1.7812-0.30859-2.6484zm-31.746 0h-15.156c-0.15234 0.86719-0.25781 1.75-0.3125 2.6484h15.777c-0.054688-0.89844-0.16016-1.7812-0.3125-2.6484zm32.016 6.4336h-26.457c-0.070313 0.89453-0.17969 1.7773-0.32812 2.6484h26.383c0.17969-0.86719 0.31641-1.75 0.40234-2.6484zm-31.766 0h-15.652c0.085938 0.89844 0.21484 1.7812 0.39844 2.6484h14.855c0.18359-0.86328 0.3125-1.75 0.39844-2.6484zm30.223 6.4297-26.152 0.003906c-0.28516 0.90234-0.61328 1.7852-0.98047 2.6484h25.922c0.46094-0.84766 0.85156-1.7383 1.207-2.6484zm-31.75 0-12.598 0.003906c0.35938 0.91797 0.80078 1.7891 1.2695 2.6484h10.055c0.46875-0.85547 0.90625-1.7305 1.2695-2.6484zm27.996 6.4336-25.332 0.003907c-0.5625 0.91797-1.1719 1.8008-1.832 2.6484h24.578c0.92187-0.82031 1.7969-1.6914 2.582-2.6484zm-31.836 0h-4.918c0.76172 0.91797 1.5703 1.8008 2.457 2.5977 0.89062-0.79688 1.6953-1.6797 2.457-2.5977zm23.488 6.4336-20.168 0.003906c3.0664 1.4336 6.4844 2.2422 10.102 2.2422 3.6055 0 7.0078-0.81641 10.066-2.2422z" fill-rule="evenodd"/>
</svg>
