<?xml version="1.0" encoding="UTF-8"?>
<svg width="24px" height="24px" version="1.1" viewBox="0 0 100 100" xmlns="http://www.w3.org/2000/svg">
 <g>
  <path d="m60 26v-3c0-1.1055-0.89453-2-2-2h-16c-1.1055 0-2 0.89453-2 2v3h-13c-1.1055 0-2 0.89453-2 2v6c0 1.1055 0.89453 2 2 2h46c1.1055 0 2-0.89453 2-2v-6c0-1.1055-0.89453-2-2-2z"/>
  <path d="m31 38c-0.55469 0-1.0859 0.23047-1.4609 0.63672-0.37891 0.40625-0.57031 0.94922-0.53125 1.5039l4 43c0.070313 1.0469 0.94141 1.8594 1.9922 1.8594h30c1.0508 0 1.9219-0.8125 1.9961-1.8594l5-43c0.039062-0.55469-0.15234-1.0977-0.53125-1.5039s-0.91016-0.63672-1.4648-0.63672zm10.898 37.992c-0.054688 0.003906-0.10547 0.007812-0.15625 0.007812-1.0352 0-1.9102-0.79688-1.9922-1.8477l-1.9141-24.969c-0.085938-1.1016 0.73828-2.0625 1.8398-2.1484 1.0938-0.085937 2.0625 0.73828 2.1484 1.8398l1.9141 24.969c0.085938 1.1055-0.73828 2.0664-1.8398 2.1484zm10.102-2.0117c0 1.1055-0.89453 2-2 2s-2-0.89453-2-2v-24.98c0-1.1055 0.89453-2 2-2s2 0.89453 2 2zm7.8203 0.18359c-0.097656 1.0352-0.96875 1.8125-1.9883 1.8125-0.0625 0-0.125-0.003906-0.1875-0.007812-1.1016-0.10156-1.9062-1.0781-1.8047-2.1797l2.3398-24.926c0.10156-1.1016 1.0742-1.9062 2.1797-1.8047 1.1016 0.10156 1.9062 1.0781 1.8047 2.1797z"/>
 </g>
</svg>
